<svg width="238" height="54" viewBox="0 0 238 54" fill="none" xmlns="http://www.w3.org/2000/svg" role="img" aria-labelledby="slabway-logo-title slabway-logo-desc">
  <title id="slabway-logo-title">Concrete</title>
  <desc id="slabway-logo-desc">Concrete independent concrete matching platform logo</desc>

  <g class="slabway-mark">
    <path
      d="M8 18.5L28.8 7.5C30.2 6.8 31.8 6.8 33.2 7.5L54 18.5L33.2 29.5C31.8 30.2 30.2 30.2 28.8 29.5L8 18.5Z"
      fill="#D8D4CC"
    />
    <path
      d="M8 18.5V32.8C8 34.2 8.8 35.5 10.1 36.2L28.9 46.1C30.2 46.8 31.8 46.8 33.1 46.1L51.9 36.2C53.2 35.5 54 34.2 54 32.8V18.5L33.2 29.5C31.8 30.2 30.2 30.2 28.8 29.5L8 18.5Z"
      fill="#8B877F"
    />
    <path
      d="M8 18.5L28.8 7.5C30.2 6.8 31.8 6.8 33.2 7.5L54 18.5M8 18.5L28.8 29.5C30.2 30.2 31.8 30.2 33.2 29.5L54 18.5M8 18.5V32.8C8 34.2 8.8 35.5 10.1 36.2L28.9 46.1C30.2 46.8 31.8 46.8 33.1 46.1L51.9 36.2C53.2 35.5 54 34.2 54 32.8V18.5"
      stroke="#FFFFFF"
      stroke-width="2"
      stroke-linejoin="round"
    />
    <path
      d="M18.5 18.5L31 12L43.5 18.5"
      stroke="#050505"
      stroke-width="2"
      stroke-linecap="round"
      stroke-linejoin="round"
      opacity="0.7"
    />
    <path
      d="M19 31L31 37.2L43 31"
      stroke="#FFFFFF"
      stroke-width="1.8"
      stroke-linecap="round"
      opacity="0.72"
    />
    <path
      d="M31 30.2V45.8"
      stroke="#FFFFFF"
      stroke-width="1.8"
      stroke-linecap="round"
      opacity="0.65"
    />
    <path
      d="M45.5 16.2L50.5 18.8"
      stroke="#D7194F"
      stroke-width="2.4"
      stroke-linecap="round"
    />
  </g>

  <g class="slabway-wordmark">
    <text
      x="70"
      y="31"
      fill="#FFFFFF"
      font-family="Sora, Space Grotesk, Inter, Arial, sans-serif"
      font-size="24"
      font-weight="800"
      letter-spacing="-0.8"
    >Concrete<tspan fill="#D7194F">Way</tspan></text>

    <text
      x="71"
      y="44"
      fill="#D8D4CC"
      font-family="Inter, Manrope, Arial, sans-serif"
      font-size="7.5"
      font-weight="700"
      letter-spacing="1.5"
    >INDEPENDENT CONCRETE MATCHING PLATFORM</text>
  </g>
</svg>